<svg width="1789" height="760" viewBox="0 0 1789 760" fill="none" xmlns="http://www.w3.org/2000/svg">
<path d="M1150.69 703.688C1150.69 706.361 1148.52 708.532 1145.84 708.532C1143.17 708.532 1141 706.361 1141 703.688C1141 701.016 1143.17 698.845 1145.84 698.845C1148.52 698.845 1150.69 701.01 1150.69 703.688Z" stroke="#4D2C5E" stroke-opacity="0.1" stroke-width="2" stroke-miterlimit="10" stroke-linecap="round" stroke-linejoin="round"/>
<path d="M1197.68 745.696C1200.35 745.696 1202.52 743.527 1202.52 740.852C1202.52 738.177 1200.35 736.009 1197.68 736.009C1195 736.009 1192.84 738.177 1192.84 740.852C1192.84 743.527 1195 745.696 1197.68 745.696Z" stroke="#4D2C5E" stroke-opacity="0.1" stroke-width="2" stroke-miterlimit="10" stroke-linecap="round" stroke-linejoin="round"/>
<path d="M1179.44 730.894C1185.15 730.894 1189.77 726.27 1189.77 720.564C1189.77 714.859 1185.15 710.234 1179.44 710.234C1173.74 710.234 1169.11 714.859 1169.11 720.564C1169.11 726.27 1173.74 730.894 1179.44 730.894Z" stroke="#4D2C5E" stroke-opacity="0.1" stroke-width="2" stroke-miterlimit="10" stroke-linecap="round" stroke-linejoin="round"/>
<path d="M1197.44 720.565L1194 726.587L1192.17 733.291L1185.47 735.113L1179.44 738.563L1173.42 735.113L1166.71 733.291L1164.89 726.587L1161.44 720.565L1164.89 714.537L1166.71 707.833L1173.42 706.011L1179.44 702.561L1185.47 706.011L1192.17 707.833L1194 714.537L1197.44 720.565Z" stroke="#4D2C5E" stroke-opacity="0.1" stroke-width="2" stroke-miterlimit="10" stroke-linecap="round" stroke-linejoin="round"/>
<path d="M1192.84 740.853C1192.84 738.18 1195.01 736.009 1197.68 736.009C1199.12 736.009 1200.42 736.646 1201.31 737.65C1204.99 732.936 1207.2 727.01 1207.2 720.559C1207.2 705.227 1194.77 692.8 1179.44 692.8C1164.11 692.8 1151.68 705.227 1151.68 720.559C1151.68 735.89 1164.11 748.318 1179.44 748.318C1184.83 748.318 1189.85 746.779 1194.11 744.123C1193.33 743.26 1192.84 742.116 1192.84 740.853Z" stroke="#4D2C5E" stroke-opacity="0.1" stroke-width="2" stroke-miterlimit="10" stroke-linecap="round" stroke-linejoin="round"/>
<path d="M1179.44 683C1166.49 683 1155.07 689.558 1148.32 699.533C1149.73 700.378 1150.69 701.923 1150.69 703.694C1150.69 706.367 1148.52 708.538 1145.84 708.538C1145.18 708.538 1144.56 708.402 1143.99 708.165C1142.63 712.05 1141.89 716.217 1141.89 720.565C1141.89 741.309 1158.71 758.13 1179.45 758.13C1200.19 758.13 1217.01 741.309 1217.01 720.565C1217.01 699.82 1200.19 683 1179.44 683Z" stroke="#4D2C5E" stroke-opacity="0.1" stroke-width="2" stroke-miterlimit="10" stroke-linecap="round" stroke-linejoin="round"/>
<path d="M1291.84 80.2254L1268.54 72.3099C1266.07 71.4757 1264.76 68.7994 1265.59 66.3366C1266.43 63.8739 1269.1 62.5591 1271.56 63.3933L1294.86 71.3088C1297.33 72.1431 1298.64 74.8194 1297.81 77.2755C1296.97 79.7449 1294.3 81.0664 1291.84 80.2254Z" stroke="#4D2C5E" stroke-opacity="0.1" stroke-width="3" stroke-miterlimit="10"/>
<path d="M1288.78 89.2491L1265.47 81.3336C1263.01 80.4993 1261.69 77.823 1262.53 75.3669C1263.36 72.9042 1266.04 71.5893 1268.5 72.4236L1291.81 80.3325C1294.27 81.1667 1295.59 83.843 1294.75 86.3058C1293.91 88.7685 1291.24 90.0833 1288.78 89.2491Z" stroke="#4D2C5E" stroke-opacity="0.1" stroke-width="3" stroke-miterlimit="10"/>
<path d="M1268.06 39.0531C1268.09 39.1331 1268.11 39.2066 1268.13 39.2867C1268.66 40.9485 1271.73 51.4802 1270.44 63.1666L1295.45 71.4158C1301.37 61.2645 1310.11 54.6371 1311.52 53.6093C1311.58 53.5626 1311.65 53.5159 1311.71 53.4692C1312.39 52.9819 1313.05 52.4613 1313.69 51.9074C1317.46 48.6571 1320.42 44.379 1322.09 39.32C1327.01 24.4234 1318.92 8.35885 1304.02 3.44004C1289.12 -1.47878 1273.06 6.61024 1268.14 21.5068C1266.47 26.5725 1266.3 31.7716 1267.39 36.6237C1267.58 37.438 1267.8 38.2522 1268.06 39.0531Z" stroke="#4D2C5E" stroke-opacity="0.1" stroke-width="3" stroke-miterlimit="10"/>
<path d="M1266.75 81.8809C1266.47 86.8197 1269.51 91.5249 1274.43 93.1534C1279.29 94.7552 1284.47 92.8531 1287.22 88.8286L1266.75 81.8809Z" stroke="#4D2C5E" stroke-opacity="0.1" stroke-width="3" stroke-miterlimit="10"/>
<path d="M1278.27 65.6158L1285.7 43.104C1286.44 40.8882 1285.23 38.4989 1283.01 37.7647C1280.8 37.0306 1278.41 38.2386 1277.67 40.4544C1276.94 42.6702 1278.15 45.0595 1280.36 45.7937L1289.28 48.737" stroke="#4D2C5E" stroke-opacity="0.1" stroke-width="3" stroke-miterlimit="10"/>
<path d="M1288.07 68.8533L1295.5 46.3415C1296.23 44.1257 1298.62 42.9243 1300.84 43.6518C1303.05 44.386 1304.25 46.7753 1303.53 48.9911C1302.79 51.2069 1300.4 52.4083 1298.19 51.6808L1289.27 48.7375" stroke="#4D2C5E" stroke-opacity="0.1" stroke-width="3" stroke-miterlimit="10"/>
<path d="M1327.37 47.0752L1334.9 49.5646" stroke="#4D2C5E" stroke-opacity="0.1" stroke-width="3" stroke-miterlimit="10" stroke-linecap="round"/>
<path d="M1330.82 37.5914L1338.66 36.4102" stroke="#4D2C5E" stroke-opacity="0.1" stroke-width="3" stroke-miterlimit="10" stroke-linecap="round"/>
<path d="M1322.1 55.2109L1327.69 60.8305" stroke="#4D2C5E" stroke-opacity="0.1" stroke-width="3" stroke-miterlimit="10" stroke-linecap="round"/>
<path d="M1257.44 23.9964L1249.91 21.5137" stroke="#4D2C5E" stroke-opacity="0.1" stroke-width="3" stroke-miterlimit="10" stroke-linecap="round"/>
<path d="M1260.32 14.3188L1254.73 8.69922" stroke="#4D2C5E" stroke-opacity="0.1" stroke-width="3" stroke-miterlimit="10" stroke-linecap="round"/>
<path d="M1256.84 33.667L1249 34.8483" stroke="#4D2C5E" stroke-opacity="0.1" stroke-width="3" stroke-miterlimit="10" stroke-linecap="round"/>
<path d="M1055.99 158.578L986.788 137.906C981.755 136.404 978.898 131.107 980.4 126.073L994.221 79.7884C995.723 74.7551 1001.02 71.8983 1006.05 73.4L1075.26 94.0728C1080.29 95.5746 1083.15 100.872 1081.65 105.905L1067.83 152.19C1066.32 157.217 1061.02 160.08 1055.99 158.578Z" stroke="#4D2C5E" stroke-opacity="0.1" stroke-width="4" stroke-miterlimit="10" stroke-linecap="round"/>
<path d="M982.031 120.601L1069.46 146.717" stroke="#4D2C5E" stroke-opacity="0.1" stroke-width="4" stroke-miterlimit="10" stroke-linecap="round"/>
<path d="M1025.96 141.244C1025.58 142.499 1024.26 143.215 1023 142.84C1021.75 142.464 1021.03 141.138 1021.41 139.883C1021.78 138.628 1023.11 137.912 1024.36 138.287C1025.62 138.663 1026.33 139.989 1025.96 141.244Z" fill="#4D2C5E" fill-opacity="0.5"/>
<path d="M1031.2 151.179L1011.6 145.324L1008.96 154.166L1028.56 160.021L1031.2 151.179Z" stroke="#4D2C5E" stroke-opacity="0.1" stroke-width="4" stroke-miterlimit="10" stroke-linecap="round"/>
<path d="M1001.69 152.501L1035.53 162.609" stroke="#4D2C5E" stroke-opacity="0.1" stroke-width="4" stroke-miterlimit="10" stroke-linecap="round"/>
<path d="M1728.72 85.6348C1750.41 85.6348 1768 77.2987 1768 67.0157C1768 56.7326 1750.41 48.3965 1728.72 48.3965C1707.03 48.3965 1689.44 56.7326 1689.44 67.0157C1689.44 77.2987 1707.03 85.6348 1728.72 85.6348Z" stroke="#4D2C5E" stroke-opacity="0.1" stroke-width="3" stroke-miterlimit="10" stroke-linecap="round" stroke-linejoin="round"/>
<path d="M1744.6 76.7212C1755.89 58.1925 1757.91 38.8373 1749.13 33.4901C1740.35 28.1429 1724.08 38.8286 1712.8 57.3572C1701.52 75.8858 1699.49 95.241 1708.28 100.588C1717.06 105.935 1733.32 95.2498 1744.6 76.7212Z" stroke="#4D2C5E" stroke-opacity="0.1" stroke-width="3" stroke-miterlimit="10" stroke-linecap="round" stroke-linejoin="round"/>
<path d="M1749.12 100.58C1757.9 95.233 1755.88 75.8778 1744.6 57.3492C1733.32 38.8205 1717.05 28.1349 1708.27 33.4821C1699.49 38.8293 1701.51 58.1845 1712.79 76.7131C1724.07 95.2417 1740.34 105.927 1749.12 100.58Z" stroke="#4D2C5E" stroke-opacity="0.1" stroke-width="3" stroke-miterlimit="10" stroke-linecap="round" stroke-linejoin="round"/>
<path d="M1728.72 71.9445C1731.44 71.9445 1733.65 69.7378 1733.65 67.0157C1733.65 64.2936 1731.44 62.0869 1728.72 62.0869C1726 62.0869 1723.79 64.2936 1723.79 67.0157C1723.79 69.7378 1726 71.9445 1728.72 71.9445Z" stroke="#4D2C5E" stroke-opacity="0.1" stroke-width="3" stroke-miterlimit="10" stroke-linecap="round" stroke-linejoin="round"/>
<path d="M1742.54 654.642L1710.1 662.13L1708.65 655.808C1708.31 654.342 1709.22 652.884 1710.68 652.542L1737.81 646.276C1739.28 645.941 1740.74 646.848 1741.08 648.313L1742.54 654.642Z" stroke="#4D2C5E" stroke-opacity="0.1" stroke-width="3" stroke-miterlimit="10" stroke-linecap="round"/>
<path d="M1731.88 620.643C1746.17 609.116 1748.42 588.182 1736.89 573.886C1725.36 559.589 1704.43 557.344 1690.13 568.872C1675.84 580.399 1673.59 601.333 1685.12 615.629C1696.65 629.925 1717.58 632.17 1731.88 620.643Z" stroke="#4D2C5E" stroke-opacity="0.1" stroke-width="3" stroke-miterlimit="10"/>
<path d="M1726.48 624.176L1695.47 565.35L1691.6 558.211C1671.38 568.867 1663.64 593.89 1674.29 614.106C1684.95 634.322 1709.97 642.068 1730.19 631.412L1726.4 624.224" stroke="#4D2C5E" stroke-opacity="0.1" stroke-width="3" stroke-miterlimit="10" stroke-linecap="round" stroke-linejoin="round"/>
<path d="M1702.31 578.24C1712.46 572.887 1719.16 565.654 1717.28 562.084C1715.4 558.515 1705.64 559.961 1695.49 565.314C1685.34 570.666 1678.63 577.899 1680.51 581.469C1682.4 585.038 1692.15 583.593 1702.31 578.24Z" stroke="#4D2C5E" stroke-opacity="0.1" stroke-width="3" stroke-miterlimit="10"/>
<path d="M1704.69 627.406C1711.86 628.788 1719.52 627.846 1726.48 624.175C1733.44 620.505 1738.55 614.713 1741.46 608.021C1734.3 606.639 1726.63 607.581 1719.67 611.252C1712.71 614.922 1707.6 620.714 1704.69 627.406Z" stroke="#4D2C5E" stroke-opacity="0.1" stroke-width="3" stroke-miterlimit="10"/>
<path d="M1726.51 624.14C1734.63 619.858 1734.27 603.218 1725.7 586.973C1717.14 570.728 1703.61 561.03 1695.49 565.312C1687.37 569.594 1687.73 586.233 1696.29 602.478C1704.86 618.723 1718.39 628.421 1726.51 624.14Z" stroke="#4D2C5E" stroke-opacity="0.1" stroke-width="3" stroke-miterlimit="10"/>
<path d="M1681.56 610.268L1740.39 579.257" stroke="#4D2C5E" stroke-opacity="0.1" stroke-width="3" stroke-miterlimit="10"/>
<path d="M1720.63 635.033L1724.07 649.352" stroke="#4D2C5E" stroke-opacity="0.1" stroke-width="3" stroke-miterlimit="10"/>
<path d="M1706.21 663.463L1747.56 653.547" stroke="#4D2C5E" stroke-opacity="0.1" stroke-width="3" stroke-miterlimit="10" stroke-linecap="round"/>
<path d="M1764.73 447.023L1782.04 429.719L1734.09 381.769L1716.78 399.073L1764.73 447.023Z" stroke="#4D2C5E" stroke-opacity="0.1" stroke-width="3" stroke-miterlimit="10" stroke-linecap="round" stroke-linejoin="round"/>
<path d="M1786.71 451.705L1782.03 429.715L1764.72 447.02L1786.71 451.705Z" stroke="#4D2C5E" stroke-opacity="0.1" stroke-width="3" stroke-miterlimit="10" stroke-linecap="round" stroke-linejoin="round"/>
<path d="M1784.53 441.445L1776.45 449.519" stroke="#4D2C5E" stroke-opacity="0.1" stroke-width="3" stroke-miterlimit="10" stroke-linecap="round" stroke-linejoin="round"/>
<path d="M1711.68 385.881L1720.88 376.68C1723.12 374.44 1726.75 374.44 1728.99 376.68L1734.07 381.768L1716.77 399.073L1711.68 393.985C1709.44 391.746 1709.44 388.112 1711.68 385.881Z" stroke="#4D2C5E" stroke-opacity="0.1" stroke-width="3" stroke-miterlimit="10" stroke-linecap="round" stroke-linejoin="round"/>
<path d="M1738.75 386.437L1721.45 403.75" stroke="#4D2C5E" stroke-opacity="0.1" stroke-width="3" stroke-miterlimit="10" stroke-linecap="round" stroke-linejoin="round"/>
<path d="M1773.38 438.368L1730.1 395.097" stroke="#4D2C5E" stroke-opacity="0.1" stroke-width="3" stroke-miterlimit="10" stroke-linecap="round" stroke-linejoin="round"/>
<path d="M412.027 656.207L408.842 663.467" stroke="#4D2C5E" stroke-opacity="0.1" stroke-width="4" stroke-miterlimit="10" stroke-linecap="round" stroke-linejoin="round"/>
<path d="M435.145 666.348L431.96 673.608" stroke="#4D2C5E" stroke-opacity="0.1" stroke-width="4" stroke-miterlimit="10" stroke-linecap="round" stroke-linejoin="round"/>
<path d="M458.269 676.484L455.084 683.744" stroke="#4D2C5E" stroke-opacity="0.1" stroke-width="4" stroke-miterlimit="10" stroke-linecap="round" stroke-linejoin="round"/>
<path d="M396.555 649.422L394.962 653.057" stroke="#4D2C5E" stroke-opacity="0.1" stroke-width="4" stroke-miterlimit="10" stroke-linecap="round" stroke-linejoin="round"/>
<path d="M404.29 652.82L402.698 656.445" stroke="#4D2C5E" stroke-opacity="0.1" stroke-width="4" stroke-miterlimit="10" stroke-linecap="round" stroke-linejoin="round"/>
<path d="M419.718 659.578L418.125 663.214" stroke="#4D2C5E" stroke-opacity="0.1" stroke-width="4" stroke-miterlimit="10" stroke-linecap="round" stroke-linejoin="round"/>
<path d="M427.449 662.971L425.862 666.601" stroke="#4D2C5E" stroke-opacity="0.1" stroke-width="4" stroke-miterlimit="10" stroke-linecap="round" stroke-linejoin="round"/>
<path d="M442.882 669.735L441.289 673.371" stroke="#4D2C5E" stroke-opacity="0.1" stroke-width="4" stroke-miterlimit="10" stroke-linecap="round" stroke-linejoin="round"/>
<path d="M466.38 680.041L464.793 683.672" stroke="#4D2C5E" stroke-opacity="0.1" stroke-width="4" stroke-miterlimit="10" stroke-linecap="round" stroke-linejoin="round"/>
<path d="M450.612 673.127L449.026 676.757" stroke="#4D2C5E" stroke-opacity="0.1" stroke-width="4" stroke-miterlimit="10" stroke-linecap="round" stroke-linejoin="round"/>
<path d="M453.268 738.091L376.93 640.821L476.731 684.577L453.268 738.091Z" stroke="#4D2C5E" stroke-opacity="0.1" stroke-width="4" stroke-miterlimit="10" stroke-linecap="round" stroke-linejoin="round"/>
<path d="M449.378 707.391L428.494 680.781L455.793 692.746L449.378 707.391Z" stroke="#4D2C5E" stroke-opacity="0.1" stroke-width="4" stroke-miterlimit="10" stroke-linecap="round" stroke-linejoin="round"/>
<path d="M639.774 23.9999L611 37.9121L668.351 156.527L697.124 142.614L639.774 23.9999Z" stroke="#4D2C5E" stroke-opacity="0.1" stroke-width="4" stroke-miterlimit="10" stroke-linecap="round" stroke-linejoin="round"/>
<path d="M646.64 38.2334L632.26 45.1834" stroke="#4D2C5E" stroke-opacity="0.1" stroke-width="4" stroke-miterlimit="10" stroke-linecap="round" stroke-linejoin="round"/>
<path d="M659.93 65.7139L645.54 72.6739" stroke="#4D2C5E" stroke-opacity="0.1" stroke-width="4" stroke-miterlimit="10" stroke-linecap="round" stroke-linejoin="round"/>
<path d="M673.22 93.1934L658.83 100.153" stroke="#4D2C5E" stroke-opacity="0.1" stroke-width="4" stroke-miterlimit="10" stroke-linecap="round" stroke-linejoin="round"/>
<path d="M686.5 120.684L672.12 127.634" stroke="#4D2C5E" stroke-opacity="0.1" stroke-width="4" stroke-miterlimit="10" stroke-linecap="round" stroke-linejoin="round"/>
<path d="M651.04 47.334L643.85 50.804" stroke="#4D2C5E" stroke-opacity="0.1" stroke-width="4" stroke-miterlimit="10" stroke-linecap="round" stroke-linejoin="round"/>
<path d="M655.48 56.5234L648.29 60.0034" stroke="#4D2C5E" stroke-opacity="0.1" stroke-width="4" stroke-miterlimit="10" stroke-linecap="round" stroke-linejoin="round"/>
<path d="M664.35 74.8633L657.16 78.3333" stroke="#4D2C5E" stroke-opacity="0.1" stroke-width="4" stroke-miterlimit="10" stroke-linecap="round" stroke-linejoin="round"/>
<path d="M668.79 84.0537L661.6 87.5337" stroke="#4D2C5E" stroke-opacity="0.1" stroke-width="4" stroke-miterlimit="10" stroke-linecap="round" stroke-linejoin="round"/>
<path d="M677.66 102.394L670.47 105.864" stroke="#4D2C5E" stroke-opacity="0.1" stroke-width="4" stroke-miterlimit="10" stroke-linecap="round" stroke-linejoin="round"/>
<path d="M682.11 111.584L674.91 115.064" stroke="#4D2C5E" stroke-opacity="0.1" stroke-width="4" stroke-miterlimit="10" stroke-linecap="round" stroke-linejoin="round"/>
<path d="M40.0008 624.631L8.77077 639.301C7.10077 640.091 5.11082 639.371 4.32082 637.701L2.32082 633.441C1.53082 631.771 2.2508 629.781 3.9208 628.991L35.1508 614.321C36.8208 613.531 38.8108 614.251 39.6008 615.921L41.6008 620.181C42.3908 621.861 41.6708 623.851 40.0008 624.631Z" stroke="#4D2C5E" stroke-opacity="0.1" stroke-width="4" stroke-miterlimit="10" stroke-linecap="round"/>
<path d="M52.1309 657.951L36.851 626.131L12.1309 638.001L27.4109 669.821L37.0509 723.061C40.2209 729.671 48.1509 732.451 54.7509 729.281L81.4409 716.461C88.0509 713.291 90.8309 705.361 87.6609 698.761L52.1309 657.951Z" stroke="#4D2C5E" stroke-opacity="0.1" stroke-width="4" stroke-miterlimit="10" stroke-linecap="round"/>
<path d="M31.751 693.831C31.751 693.831 36.851 685.571 50.411 686.041C63.971 686.511 66.251 674.161 66.251 674.161" stroke="#4D2C5E" stroke-opacity="0.1" stroke-width="4" stroke-miterlimit="10" stroke-linecap="round"/>
<path d="M83.48 109.96C95.3431 109.96 104.96 100.343 104.96 88.48C104.96 76.6169 95.3431 67 83.48 67C71.617 67 62 76.6169 62 88.48C62 100.343 71.617 109.96 83.48 109.96Z" stroke="#4D2C5E" stroke-opacity="0.1" stroke-width="4" stroke-miterlimit="10" stroke-linecap="round" stroke-linejoin="round"/>
<path d="M113.59 131.18C118.334 131.18 122.18 127.334 122.18 122.59C122.18 117.846 118.334 114 113.59 114C108.846 114 105 117.846 105 122.59C105 127.334 108.846 131.18 113.59 131.18Z" stroke="#4D2C5E" stroke-opacity="0.1" stroke-width="4" stroke-miterlimit="10" stroke-linecap="round" stroke-linejoin="round"/>
</svg>
